HIERARCHY
ROOT hip
{
  OFFSET 0 0 0
  CHANNELS 6 Xposition Yposition Zposition Zrotation Yrotation Xrotation
  JOINT abdomen
  {
    OFFSET 0 20.6881 -0.73152
    CHANNELS 3 Zrotation Xrotation Yrotation
    JOINT chest
    {
      OFFSET 0 11.7043 -0.48768
      CHANNELS 3 Zrotation Xrotation Yrotation
      JOINT neck
      {
        OFFSET 0 22.1894 -2.19456
        CHANNELS 3 Zrotation Xrotation Yrotation
        JOINT head
        {
          OFFSET -0.24384 7.07133 1.2192
          CHANNELS 3 Zrotation Xrotation Yrotation
          JOINT leftEye
          {
            OFFSET 4.14528 8.04674 8.04672
            CHANNELS 3 Zrotation Xrotation Yrotation
            End Site
            {
              OFFSET 1 0 0
            }
          }
          JOINT rightEye
          {
            OFFSET -3.6576 8.04674 8.04672
            CHANNELS 3 Zrotation Xrotation Yrotation
            End Site
            {
              OFFSET 1 0 0
            }
          }
        }
      }
      JOINT rCollar
      {
        OFFSET -2.68224 19.2634 -4.8768
        CHANNELS 3 Zrotation Xrotation Yrotation
        JOINT rShldr
        {
          OFFSET -8.77824 -1.95073 1.46304
          CHANNELS 3 Zrotation Xrotation Yrotation
          JOINT rForeArm
          {
            OFFSET -28.1742 -1.7115 0.48768
            CHANNELS 3 Zrotation Xrotation Yrotation
            JOINT rHand
            {
              OFFSET -22.5879 0.773209 7.07136
              CHANNELS 3 Zrotation Xrotation Yrotation
              JOINT rThumb1
              {
                OFFSET -1.2192 -0.487915 3.41376
                CHANNELS 3 Zrotation Xrotation Yrotation
                JOINT rThumb2
                {
                  OFFSET -3.37035 -0.52449 3.41376
                  CHANNELS 3 Zrotation Xrotation Yrotation
                  End Site
                  {
                    OFFSET -1.78271 -1.18214 1.43049
                  }
                }
              }
              JOINT rIndex1
              {
                OFFSET -7.75947 0.938293 5.60832
                CHANNELS 3 Zrotation Xrotation Yrotation
                JOINT rIndex2
                {
                  OFFSET -2.54057 -0.884171 1.56538
                  CHANNELS 3 Zrotation Xrotation Yrotation
                  End Site
                  {
                    OFFSET -1.62519 -0.234802 1.16502
                  }
                }
              }
              JOINT rMid1
              {
                OFFSET -8.24714 1.18213 3.41376
                CHANNELS 3 Zrotation Xrotation Yrotation
                JOINT rMid2
                {
                  OFFSET -3.10165 -0.590103 1.0647
                  CHANNELS 3 Zrotation Xrotation Yrotation
                  End Site
                  {
                    OFFSET -2.48547 -0.328903 0.83742
                  }
                }
              }
              JOINT rRing1
              {
                OFFSET -8.82822 0.546677 1.51678
                CHANNELS 3 Zrotation Xrotation Yrotation
                JOINT rRing2
                {
                  OFFSET -2.60934 -0.819778 -0.0198488
                  CHANNELS 3 Zrotation Xrotation Yrotation
                  End Site
                  {
                    OFFSET -2.33842 -0.294052 0.168128
                  }
                }
              }
              JOINT rPinky1
              {
                OFFSET -8.27202 -0.0477905 -0.4584
                CHANNELS 3 Zrotation Xrotation Yrotation
                JOINT rPinky2
                {
                  OFFSET -1.82734 -0.647385 -0.700984
                  CHANNELS 3 Zrotation Xrotation Yrotation
                  End Site
                  {
                    OFFSET -1.69225 -0.51767 -0.607171
                  }
                }
              }
            }
          }
        }
      }
      JOINT lCollar
      {
        OFFSET 2.68224 19.2634 -4.8768
        CHANNELS 3 Zrotation Xrotation Yrotation
        JOINT lShldr
        {
          OFFSET 8.77824 -1.95073 1.46304
          CHANNELS 3 Zrotation Xrotation Yrotation
          JOINT lForeArm
          {
            OFFSET 28.1742 -1.7115 0.48768
            CHANNELS 3 Zrotation Xrotation Yrotation
            JOINT lHand
            {
              OFFSET 22.5879 0.773209 7.07136
              CHANNELS 3 Zrotation Xrotation Yrotation
              JOINT lThumb1
              {
                OFFSET 1.2192 -0.487915 3.41376
                CHANNELS 3 Zrotation Xrotation Yrotation
                JOINT lThumb2
                {
                  OFFSET 3.37035 -0.52449 3.41376
                  CHANNELS 3 Zrotation Xrotation Yrotation
                  End Site
                  {
                    OFFSET 1.78271 -1.18214 1.43049
                  }
                }
              }
              JOINT lIndex1
              {
                OFFSET 7.75947 0.938293 5.60832
                CHANNELS 3 Zrotation Xrotation Yrotation
                JOINT lIndex2
                {
                  OFFSET 2.54057 -0.884171 1.56538
                  CHANNELS 3 Zrotation Xrotation Yrotation
                  End Site
                  {
                    OFFSET 1.62519 -0.234802 1.16502
                  }
                }
              }
              JOINT lMid1
              {
                OFFSET 8.24714 1.18213 3.41376
                CHANNELS 3 Zrotation Xrotation Yrotation
                JOINT lMid2
                {
                  OFFSET 3.10165 -0.590103 1.0647
                  CHANNELS 3 Zrotation Xrotation Yrotation
                  End Site
                  {
                    OFFSET 2.48547 -0.328903 0.83742
                  }
                }
              }
              JOINT lRing1
              {
                OFFSET 8.82822 0.546677 1.51678
                CHANNELS 3 Zrotation Xrotation Yrotation
                JOINT lRing2
                {
                  OFFSET 2.60934 -0.819778 -0.0198488
                  CHANNELS 3 Zrotation Xrotation Yrotation
                  End Site
                  {
                    OFFSET 2.33842 -0.294052 0.168128
                  }
                }
              }
              JOINT lPinky1
              {
                OFFSET 8.27202 -0.0477905 -0.4584
                CHANNELS 3 Zrotation Xrotation Yrotation
                JOINT lPinky2
                {
                  OFFSET 1.82734 -0.647385 -0.700984
                  CHANNELS 3 Zrotation Xrotation Yrotation
                  End Site
                  {
                    OFFSET 1.69225 -0.51767 -0.607171
                  }
                }
              }
            }
          }
        }
      }
    }
  }
  JOINT rButtock
  {
    OFFSET -8.77824 4.35084 1.2192
    CHANNELS 3 Zrotation Xrotation Yrotation
    JOINT rThigh
    {
      OFFSET 0 -1.70687 -2.19456
      CHANNELS 3 Zrotation Xrotation Yrotation
      JOINT rShin
      {
        OFFSET 0 -36.8199 0.73152
        CHANNELS 3 Zrotation Xrotation Yrotation
        JOINT rFoot
        {
          OFFSET 0.73152 -45.1104 -5.12064
          CHANNELS 3 Zrotation Xrotation Yrotation
          End Site
          {
            OFFSET -1.1221 -3.69964 12.103
          }
        }
      }
    }
  }
  JOINT lButtock
  {
    OFFSET 8.77824 4.35084 1.2192
    CHANNELS 3 Zrotation Xrotation Yrotation
    JOINT lThigh
    {
      OFFSET 0 -1.70687 -2.19456
      CHANNELS 3 Zrotation Xrotation Yrotation
      JOINT lShin
      {
        OFFSET 0 -36.8199 0.73152
        CHANNELS 3 Zrotation Xrotation Yrotation
        JOINT lFoot
        {
          OFFSET -0.73152 -45.1104 -5.12064
          CHANNELS 3 Zrotation Xrotation Yrotation
          End Site
          {
            OFFSET 1.1221 -3.69964 12.103
          }
        }
      }
    }
  }
}
MOTION
Frames:	4
Frame Time:	0.00833333
96.773 69.586 -24.8309 -370.252 -68.9634 382.031 1.13376 37.382 -8.27612 8.49952 -7.53586 -1.96683 0.0199245 21.4743 -17.3478 9.80211 -72.2149 -38.4957 -0.0 0.0 0.0 -0.0 0.0 0.0 -6.02563e-14 9.44011e-13 1.44553e-13 25.3974 -54.1268 19.7071 -6.37902 -59.377 141.729 -1.1835 -29.3314 -4.52804 -4.83647e-10 1.63677e-09 4.23407e-10 -8.41842e-10 2.82445e-09 7.22749e-10 -4.83643e-10 1.63678e-09 4.23397e-10 7.73091 5.47488 0.417314 -4.83651e-10 1.63678e-09 4.23406e-10 2.90554 0.965183 0.102902 -4.83636e-10 1.63677e-09 4.23398e-10 10.2786 0.731801 0.0259123 -4.83648e-10 1.63677e-09 4.23408e-10 2.22167 -0.733487 -0.20892 -6.04413e-14 9.43989e-13 1.44355e-13 -13.5963 -20.9831 -22.9864 6.12087 -59.4355 -142.192 0.207224 12.8586 -1.83845 -8.4152e-10 -8.94147e-10 -1.60374e-10 -1.45714e-09 -1.54651e-09 -2.63996e-10 -8.41523e-10 -8.9412e-10 -1.60363e-10 -7.73091 5.47488 -0.417314 -8.41517e-10 -8.94122e-10 -1.60371e-10 -2.90554 0.965183 -0.102902 -8.41525e-10 -8.94121e-10 -1.60372e-10 -10.2786 0.731801 -0.0259123 -8.41519e-10 -8.94143e-10 -1.6038e-10 -2.22167 -0.733487 0.20892 -2.03217e-16 0.0 -3.88251e-19 0.515379 -57.2944 17.5495 -1.15001 63.21 2.14908 -3.8889 -18.063 -8.98241 2.03217e-16 0.0 3.88251e-19 14.808 -48.8061 -18.9509 1.31527 63.7233 -1.89217 9.64966 -15.2816 21.0185
97.0608 69.5347 -24.2457 -370.187 -69.3991 381.896 1.0649 37.0312 -8.55237 8.6875 -7.66213 -2.01695 0.335387 21.7339 -17.6331 7.54739 -72.6475 -40.9173 -0.0 0.0 0.0 -0.0 0.0 0.0 2.56365e-15 -1.96444e-12 -9.26927e-14 25.8201 -54.1895 19.3327 -6.07944 -59.4468 142.266 -1.28639 -30.4482 -4.73674 4.70024e-10 -2.39531e-09 -1.38159e-09 8.52135e-10 -4.18433e-09 -2.37157e-09 4.70026e-10 -2.3953e-09 -1.3816e-09 7.73091 5.47488 0.417314 4.70019e-10 -2.39531e-09 -1.38158e-09 2.90554 0.965183 0.102902 4.70033e-10 -2.39532e-09 -1.38159e-09 10.2786 0.731801 0.0259123 4.70022e-10 -2.39531e-09 -1.38158e-09 2.22167 -0.733487 -0.20892 2.4342e-15 -1.96447e-12 -9.28231e-14 -13.0136 -21.1776 -22.4072 6.09904 -59.4405 -142.232 0.200727 12.6575 -1.80874 1.74975e-09 4.22183e-09 4.17991e-10 3.02974e-09 7.31942e-09 7.09136e-10 1.74975e-09 4.22185e-09 4.18004e-10 -7.73091 5.47488 -0.417314 1.74976e-09 4.22185e-09 4.17992e-10 -2.90554 0.965183 -0.102902 1.74975e-09 4.22185e-09 4.17991e-10 -10.2786 0.731801 -0.0259123 1.74975e-09 4.22184e-09 4.17985e-10 -2.22167 -0.733487 0.20892 -2.03217e-16 0.0 -3.88251e-19 0.117075 -57.0983 17.7622 -1.12922 62.8844 2.11169 -3.95003 -17.8674 -9.20768 2.03217e-16 0.0 3.88251e-19 14.875 -48.2727 -18.4178 1.27998 63.3809 -1.88599 10.2239 -15.748 21.893
97.2826 69.5528 -23.6794 -370.202 -69.8208 381.711 0.977164 36.6977 -8.79479 8.8647 -7.79298 -2.06099 0.660924 21.9525 -17.8557 5.13068 -73.0558 -43.3409 -0.0 0.0 0.0 -0.0 0.0 0.0 6.89086e-14 -4.92415e-12 -3.37426e-13 26.1737 -54.187 18.9337 -5.79909 -59.5096 142.767 -1.38999 -31.4858 -4.93641 1.46299e-09 -6.50639e-09 -3.18332e-09 2.61361e-09 -1.13275e-08 -5.45946e-09 1.46299e-09 -6.50638e-09 -3.18333e-09 7.73091 5.47488 0.417314 1.46298e-09 -6.50639e-09 -3.18331e-09 2.90554 0.965183 0.102902 1.46299e-09 -6.50639e-09 -3.18332e-09 10.2786 0.731801 0.0259123 1.46299e-09 -6.50639e-09 -3.18331e-09 2.22167 -0.733487 -0.20892 6.88402e-14 -4.92417e-12 -3.37497e-13 -12.4123 -21.3752 -21.859 6.12181 -59.4357 -142.191 0.196429 12.5229 -1.78888 4.34311e-09 9.3362e-09 9.91544e-10 7.52013e-09 1.61825e-08 1.67372e-09 4.34311e-09 9.33621e-09 9.9156e-10 -7.73091 5.47488 -0.417314 4.34311e-09 9.33621e-09 9.91545e-10 -2.90554 0.965183 -0.102902 4.3431e-09 9.33621e-09 9.91543e-10 -10.2786 0.731801 -0.0259123 4.34311e-09 9.3362e-09 9.91538e-10 -2.22167 -0.733487 0.20892 -2.03217e-16 0.0 -3.88251e-19 -0.249587 -56.8823 18.0314 -1.1066 62.53 2.0733 -3.9959 -17.6931 -9.39912 2.03217e-16 0.0 3.88251e-19 14.9235 -47.8553 -17.8374 1.25749 63.1684 -1.88646 10.7086 -16.0881 22.6363
97.4911 69.5633 -23.1257 -370.422 -70.2075 381.718 0.869992 36.4374 -8.98995 9.06437 -7.85806 -2.10107 0.958627 21.9826 -18.0144 2.67797 -73.405 -45.727 -0.0 0.0 0.0 -0.0 0.0 0.0 1.08157e-13 -6.78226e-12 -4.88165e-13 26.5535 -54.1285 18.7457 -5.60408 -59.5519 143.115 -1.46554 -32.1915 -5.07584 2.04009e-09 -8.86231e-09 -4.20934e-09 3.63655e-09 -1.54204e-08 -7.21773e-09 2.04009e-09 -8.8623e-09 -4.20936e-09 7.73091 5.47488 0.417314 2.04009e-09 -8.86231e-09 -4.20933e-09 2.90554 0.965183 0.102902 2.0401e-09 -8.86232e-09 -4.20934e-09 10.2786 0.731801 0.0259123 2.04009e-09 -8.86231e-09 -4.20933e-09 2.22167 -0.733487 -0.20892 1.08128e-13 -6.78227e-12 -4.88215e-13 -11.8286 -21.6348 -21.2831 6.15002 -59.4295 -142.14 0.196605 12.5328 -1.7903 5.88164e-09 1.23805e-08 1.37236e-09 1.01844e-08 2.14591e-08 2.31567e-09 5.88164e-09 1.23806e-08 1.37237e-09 -7.73091 5.47488 -0.417314 5.88165e-09 1.23806e-08 1.37236e-09 -2.90554 0.965183 -0.102902 5.88163e-09 1.23806e-08 1.37236e-09 -10.2786 0.731801 -0.0259123 5.88165e-09 1.23806e-08 1.37235e-09 -2.22167 -0.733487 0.20892 -2.03217e-16 0.0 -3.88251e-19 -0.511704 -56.6193 18.4261 -1.08158 62.1401 2.03397 -4.01996 -17.58 -9.52833 2.03217e-16 0.0 3.88251e-19 14.9662 -47.6197 -17.1594 1.25536 63.1804 -1.89761 11.0318 -16.3946 23.0458
